HIERARCHY
ROOT RootJoint
{
    OFFSET   0.000000   0.000000   0.000000
    CHANNELS 6 Xposition Yposition Zposition Xrotation Yrotation Zrotation
    JOINT pelvis_lowerback
    {
        OFFSET   0.000000   0.093605   0.000000
        CHANNELS 3 Xrotation Yrotation Zrotation
        JOINT lowerback_torso
        {
            OFFSET   0.000000   0.100000   0.000000
            CHANNELS 3 Xrotation Yrotation Zrotation
            JOINT torso_head
            {
                OFFSET   0.000000   0.282350   0.000000
                CHANNELS 3 Xrotation Yrotation Zrotation
                End Site
                {
                    OFFSET   0.000000   0.192650   0.000000
                }
            }
            JOINT rTorso_Clavicle
            {
                OFFSET  -0.001000   0.157500   0.000000
                CHANNELS 3 Xrotation Yrotation Zrotation
                JOINT rShoulder
                {
                    OFFSET  -0.117647   0.000000   0.000000
                    CHANNELS 3 Xrotation Yrotation Zrotation
                    JOINT rElbow
                    {
                        OFFSET  -0.245000   0.000000   0.000000
                        CHANNELS 3 Xrotation Yrotation Zrotation
                        JOINT rWrist
                        {
                            OFFSET  -0.240000   0.000000   0.000000
                            CHANNELS 3 Xrotation Yrotation Zrotation
                            End Site
                            {
                                OFFSET  -0.116353  -0.002500   0.000000
                            }
                        }
                    }
                }
            }
            JOINT lTorso_Clavicle
            {
                OFFSET   0.001000   0.157500   0.000000
                CHANNELS 3 Xrotation Yrotation Zrotation
                JOINT lShoulder
                {
                    OFFSET   0.117647   0.000000   0.000000
                    CHANNELS 3 Xrotation Yrotation Zrotation
                    JOINT lElbow
                    {
                        OFFSET   0.245000   0.000000   0.000000
                        CHANNELS 3 Xrotation Yrotation Zrotation
                        JOINT lWrist
                        {
                            OFFSET   0.240000   0.000000   0.000000
                            CHANNELS 3 Xrotation Yrotation Zrotation
                            End Site
                            {
                                OFFSET   0.116353  -0.002500   0.000000
                            }
                        }
                    }
                }
            }
        }
    }
    JOINT rHip
    {
        OFFSET  -0.100000  -0.051395   0.000000
        CHANNELS 3 Xrotation Yrotation Zrotation
        JOINT rKnee
        {
            OFFSET   0.000000  -0.410000   0.000000
            CHANNELS 3 Xrotation Yrotation Zrotation
            JOINT rAnkle
            {
                OFFSET   0.000000  -0.390000   0.000000
                CHANNELS 3 Xrotation Yrotation Zrotation
                JOINT rToeJoint
                {
                    OFFSET   0.000000  -0.050000   0.130000
                    CHANNELS 3 Xrotation Yrotation Zrotation
                    End Site
                    {
                        OFFSET  -0.010000   0.002000   0.060000
                    }
                }
            }
        }
    }
    JOINT lHip
    {
        OFFSET   0.100000  -0.051395   0.000000
        CHANNELS 3 Xrotation Yrotation Zrotation
        JOINT lKnee
        {
            OFFSET   0.000000  -0.410000   0.000000
            CHANNELS 3 Xrotation Yrotation Zrotation
            JOINT lAnkle
            {
                OFFSET   0.000000  -0.390000   0.000000
                CHANNELS 3 Xrotation Yrotation Zrotation
                JOINT lToeJoint
                {
                    OFFSET   0.000000  -0.050000   0.130000
                    CHANNELS 3 Xrotation Yrotation Zrotation
                    End Site
                    {
                        OFFSET   0.010000   0.002000   0.060000
                    }
                }
            }
        }
    }
}
MOTION
Frames: 7
Frame Time:   0.008333
 -2.413747   0.924430   4.041682   1.858406   0.686706   4.482311   4.019239   0.336054  -0.569116   5.028407  -3.073339   2.644932  -0.274759  -1.530025   0.090936   2.752949   2.648086  12.644431  -6.020321  -3.206349  49.689056   0.001855  49.025115  -0.002970  -9.121761   4.391889 -12.109797   4.299780  -5.388628 -11.627002   3.169024  -6.123058 -50.075353  -0.001798 -50.490898  -0.002310  -5.619772  -4.770747  14.108165   1.365524  -4.078581  -7.683585   4.347279  -0.000000   0.000000  -7.412782  -3.627786   1.853399  -0.484304   0.000004  -0.000000   3.048009  -2.099054   2.803714   3.400798   0.000037  -0.000021   2.738430   4.076781   0.383322 -16.979952  -0.000006  -0.000017
 -2.413471   0.924371   4.042005   1.833129   0.692165   4.472601   4.025139   0.351884  -0.559300   5.048723  -3.046755   2.631134  -0.218847  -1.513370   0.070666   2.791551   2.541869  12.586378  -5.805789  -3.107048  49.751242   0.001926  49.290620  -0.003048  -9.102696   4.404129 -12.098954   4.295440  -5.246596 -11.562946   3.135192  -6.023867 -50.133157  -0.002203 -50.770032  -0.002879  -5.660729  -4.750109  14.101831   1.422148  -4.098562  -7.689916   4.332092  -0.000003   0.000002  -7.433531  -3.620648   1.848359  -0.478321   0.000005  -0.000000   3.082946  -2.108857   2.794357   3.435388   0.000036  -0.000018   2.654219   4.084327   0.409301 -16.914560  -0.000007  -0.000013
 -2.413180   0.924310   4.042332   1.810154   0.699986   4.462934   4.029029   0.369114  -0.549909   5.069445  -3.019086   2.619386  -0.163633  -1.497970   0.050854   2.832462   2.437202  12.530408  -5.601838  -3.015865  49.810356   0.001949  49.541390  -0.003056  -9.079726   4.436228 -12.081493   4.291485  -5.105307 -11.497111   3.102597  -5.928665 -50.185440  -0.002518 -51.036835  -0.003293  -5.693195  -4.770022  14.117298   1.477001  -4.118977  -7.697136   4.316528  -0.000005   0.000002  -7.454466  -3.615395   1.843337  -0.472172   0.000005  -0.000000   3.117146  -2.119050   2.784372   3.465944   0.000034  -0.000015   2.571474   4.090122   0.433368 -16.849146  -0.000007  -0.000009
 -2.412874   0.924251   4.042654   1.789885   0.708857   4.454058   4.032392   0.386957  -0.541300   5.089357  -2.991667   2.609531  -0.111745  -1.483499   0.032054   2.872238   2.337866  12.477998  -5.410268  -2.931687  49.865086   0.001930  49.775108  -0.002998  -9.057235   4.468841 -12.064330   4.288251  -4.970564 -11.431758   3.072700  -5.837868 -50.231368  -0.002715 -51.286041  -0.003529  -5.722353  -4.797860  14.143453   1.528538  -4.138917  -7.706282   4.301390  -0.000006   0.000003  -7.475121  -3.611461   1.839256  -0.009874   0.000105  -0.000001   3.149290  -2.129765   2.773012   3.493574   0.000032  -0.000013   2.491450   4.094152   0.455397 -16.785708  -0.000004  -0.000007
 -2.412550   0.924192   4.042970   1.772375   0.718045   4.445997   4.035587   0.404886  -0.533014   5.108245  -2.964874   2.601291  -0.063252  -1.469950   0.014353   2.909811   2.244618  12.429071  -5.231113  -2.853391  49.915766   0.001880  49.992919  -0.002892  -9.035935   4.498718 -12.048372   4.285653  -4.843188 -11.368267   3.045396  -5.751756 -50.272256  -0.002808 -51.518248  -0.003619  -5.750222  -4.824693  14.174703   1.576585  -4.158251  -7.717171   4.286446  -0.000008   0.000003  -7.495881  -3.608278   1.832282  -0.094083   0.000063  -0.000000   3.179191  -2.140549   2.760068   3.518523   0.000031  -0.000011   2.414405   4.096984   0.475339 -16.724451  -0.000001  -0.000005
 -2.412211   0.924135   4.043279   1.757558   0.727461   4.438752   4.038719   0.422535  -0.524977   5.126066  -2.938929   2.594456  -0.017945  -1.457297  -0.002212   2.944858   2.157501  12.383513  -5.063896  -2.780256  49.962835   0.001808  50.196039  -0.002754  -9.015764   4.526138 -12.033375   4.283545  -4.723278 -11.307361   3.020420  -5.670449 -50.309110  -0.002817 -51.734590  -0.003599  -5.777246  -4.848920  14.208256   1.621216  -4.176819  -7.729978   4.271543  -0.000009   0.000003  -7.516058  -3.605892   1.825260  -0.159814   0.000033   0.000000   3.206838  -2.151054   2.745467   3.540917   0.000029  -0.000009   2.340108   4.099044   0.493170 -16.664807   0.000003  -0.000003
 -2.411858   0.924079   4.043581   1.745304   0.737063   4.432229   4.041843   0.439739  -0.517177   5.142834  -2.913938   2.588820   0.024389  -1.445492  -0.017667   2.977335   2.076342  12.341227  -4.907975  -2.711774  50.006672   0.001721  50.385537  -0.002596  -8.996594   4.551639 -12.019007   4.281781  -4.610699 -11.249441   2.997505  -5.593924 -50.342633  -0.002763 -51.936188  -0.003499  -5.803490  -4.870559  14.242607   1.662572  -4.194639  -7.744506   4.256654  -0.000010   0.000003  -7.535589  -3.604244   1.818375  -0.210784   0.000013   0.000000   3.232327  -2.161151   2.729373   3.560860   0.000027  -0.000008   2.268383   4.100532   0.509020 -16.606437   0.000008  -0.000002
